<?xml version="1.0" encoding="utf-8"?>
<!-- Generator: Adobe Illustrator 18.0.0, SVG Export Plug-In . SVG Version: 6.00 Build 0)  -->
<!DOCTYPE svg PUBLIC "-//W3C//DTD SVG 1.1//EN" "http://www.w3.org/Graphics/SVG/1.1/DTD/svg11.dtd">
<svg version="1.1" id="Arrow_1_" xmlns="http://www.w3.org/2000/svg" xmlns:xlink="http://www.w3.org/1999/xlink" x="0px" y="0px"
	 viewBox="0 0 500 500" enable-background="new 0 0 500 500" xml:space="preserve">
<g>
	<path fill="#DF5A48" d="M250,0C111.9,0,0,111.9,0,250c0,86.3,43.7,162.4,110.3,207.3c-3.1-10.7-4.8-21.9-4.8-33.5
		c0-43.5,23.5-82,59.6-105.8c-20-23.8-32.2-56-32.2-91.4c0-13.6,1.8-26.8,5.2-39.2c-1.5,0-3,0.1-4.5,0.1h-0.7
		C148.1,128.7,194.3,85.9,249,85.9c52.5,0,97.3,39.4,114.2,94.6c-1,0.2-2.1,0.3-3.1,0.5c4.6,14.2,7.1,29.5,7.1,45.5
		c0,35.4-12.3,67.6-32.2,91.4c36.1,23.8,59.6,62.3,59.6,105.8c0,11.6-1.7,22.8-4.8,33.5C456.3,412.4,500,336.3,500,250
		C500,111.9,388.1,0,250,0z"/>
	<path fill="#EFC84A" d="M335,318c-21.4,25.5-51.5,41.4-85,41.4s-63.6-15.9-85-41.4c-36.1,23.8-59.6,62.3-59.6,105.8
		c0,11.6,1.7,22.8,4.8,33.5c39.9,26.9,88,42.7,139.7,42.7c51.8,0,99.8-15.7,139.7-42.7c3.1-10.7,4.8-21.9,4.8-33.5
		C394.5,380.3,371.1,341.8,335,318z M338.1,406.4l-12,8.3l4.7,13.6c0.6,1.7,0,3.5-1.5,4.5c-0.7,0.5-1.6,0.8-2.4,0.8
		c-0.9,0-1.7-0.3-2.5-0.8l-11.9-8.5l-11.9,8.5c-0.7,0.5-1.6,0.8-2.5,0.8s-1.7-0.3-2.4-0.8c-1.5-1-2.1-2.8-1.5-4.5l4.7-13.6l-12-8.3
		c-1.5-1-2.1-2.8-1.5-4.5s2.1-2.8,3.9-2.8l0,0l14.8,0.1l4.5-13.7c0.5-1.7,2.1-2.8,3.9-2.8s3.4,1.1,3.9,2.8l4.5,13.7l14.8-0.1l0,0
		c1.8,0,3.4,1.1,3.9,2.8C340.2,403.6,339.6,405.4,338.1,406.4z"/>
	<path fill="#3B5766" d="M335.7,399.1L335.7,399.1l-14.8,0.1l-4.5-13.7c-0.5-1.7-2.1-2.8-3.9-2.8s-3.4,1.1-3.9,2.8l-4.5,13.7
		l-14.8-0.1l0,0c-1.8,0-3.4,1.1-3.9,2.8c-0.6,1.7,0.1,3.5,1.5,4.5l12,8.3l-4.7,13.6c-0.6,1.7,0,3.5,1.5,4.5c0.7,0.5,1.6,0.8,2.4,0.8
		c0.9,0,1.7-0.3,2.5-0.8l11.9-8.5l11.9,8.5c0.7,0.5,1.6,0.8,2.5,0.8s1.7-0.3,2.4-0.8c1.4-1,2.1-2.9,1.5-4.5l-4.7-13.6l12-8.3
		c1.5-1,2.1-2.8,1.5-4.5C339.1,400.3,337.5,399.1,335.7,399.1z"/>
	<path fill="#E09274" d="M250,359.4c33.5,0,63.6-15.9,85-41.4c20-23.8,32.2-56,32.2-91.4c0-16-2.5-31.3-7.1-45.5
		c-9,1.4-18.4,2.2-28,2.2c-40,0-75.4-12.9-97.1-32.7c-20.4,21.4-56.1,35.8-97,36.8c-3.4,12.4-5.2,25.5-5.2,39.2
		c0,35.4,12.3,67.6,32.2,91.4C186.4,343.5,216.5,359.4,250,359.4z M268.4,306.8c-6.1,4.4-12.4,5.9-17.9,5.9c-10.7,0-19-5.4-19.6-5.8
		c-2.7-1.8-3.4-5.4-1.6-8.1c1.8-2.7,5.4-3.4,8.1-1.6c0.5,0.3,12.9,8.2,24.2,0.1c2.6-1.9,6.3-1.3,8.2,1.3
		C271.6,301.2,271,304.9,268.4,306.8z M287.1,214.8c11.9,0,21.5,9.6,21.5,21.5s-9.6,21.5-21.5,21.5s-21.5-9.6-21.5-21.5
		C265.6,224.5,275.2,214.8,287.1,214.8z M212.9,214.8c11.9,0,21.5,9.6,21.5,21.5s-9.6,21.5-21.5,21.5s-21.5-9.6-21.5-21.5
		C191.4,224.5,201,214.8,212.9,214.8z"/>
	<path fill="#752C00" d="M332.1,183.3c9.7,0,19-0.8,28-2.2c1-0.2,2.1-0.3,3.1-0.5C346.2,125.4,301.5,86,249,86
		c-54.7,0-100.9,42.7-116.2,101.6h0.7c1.5,0,3-0.1,4.5-0.1c40.9-1,76.6-15.4,97-36.8C256.7,170.4,292.1,183.3,332.1,183.3z"/>
	<path fill="#FFFFFF" d="M287.1,257.8c11.9,0,21.5-9.6,21.5-21.5s-9.6-21.5-21.5-21.5s-21.5,9.6-21.5,21.5
		C265.6,248.2,275.2,257.8,287.1,257.8z M287.1,226.6c5.4,0,9.8,4.4,9.8,9.8s-4.4,9.8-9.8,9.8s-9.8-4.4-9.8-9.8
		S281.7,226.6,287.1,226.6z"/>
	<path fill="#FFFFFF" d="M212.9,257.8c11.9,0,21.5-9.6,21.5-21.5s-9.6-21.5-21.5-21.5s-21.5,9.6-21.5,21.5
		C191.4,248.2,201,257.8,212.9,257.8z M212.9,226.6c5.4,0,9.8,4.4,9.8,9.8s-4.4,9.8-9.8,9.8s-9.8-4.4-9.8-9.8
		S207.5,226.6,212.9,226.6z"/>
	<circle fill="#334D5D" cx="212.9" cy="236.3" r="9.8"/>
	<circle fill="#334D5D" cx="287.1" cy="236.3" r="9.8"/>
	<path fill="#9C6550" d="M261.5,297.2c-11.3,8.1-23.7,0.2-24.2-0.1c-2.7-1.8-6.3-1-8.1,1.6c-1.8,2.7-1.1,6.3,1.6,8.1
		c0.5,0.3,8.8,5.8,19.6,5.8c5.6,0,11.8-1.5,17.9-5.9c2.6-1.9,3.2-5.6,1.3-8.2C267.8,296,264.2,295.4,261.5,297.2z"/>
</g>
<path fill="#FFF200" d="M249.6,59c-58,0-105,47-105,105h210.1C354.6,106,307.6,59,249.6,59z"/>
<path fill="#007ED7" d="M187.5,164.4c0-45.3,11.8-106.4,62.1-106.4h-0.2c50.2,0,62.1,61,62.1,106.2L187.5,164.4z"/>
<g>
	<path fill="#C0F5FB" d="M249.5,58.3L354.6,44c0,0,15.5-0.8,15.5,12.9s-15.5,12.6-15.5,12.6L249.5,58.3z"/>
	<path fill="#B30928" d="M249.8,58.3L144.7,44c0,0-15.5-0.8-15.5,12.9s15.5,12.6,15.5,12.6L249.8,58.3z"/>
</g>
<ellipse fill="#FFFFFF" cx="249.7" cy="58.4" rx="4.3" ry="2.9"/>
</svg>
