<?xml version="1.0" encoding="utf-8"?>
<!-- Generator: Adobe Illustrator 18.0.0, SVG Export Plug-In . SVG Version: 6.00 Build 0)  -->
<!DOCTYPE svg PUBLIC "-//W3C//DTD SVG 1.1 Basic//EN" "http://www.w3.org/Graphics/SVG/1.1/DTD/svg11-basic.dtd">
<svg version="1.1" baseProfile="basic" id="Arrow_1_"
	 xmlns="http://www.w3.org/2000/svg" xmlns:xlink="http://www.w3.org/1999/xlink" x="0px" y="0px" width="62px" height="62px"
	 viewBox="620 374 62 62" xml:space="preserve">
<g>
	<g>
		<path fill="#DF5A48" d="M651,375c-16.6,0-30,13.4-30,30c0,10.4,5.2,19.5,13.2,24.9c-0.4-1.3-0.6-2.6-0.6-4c0-5.2,2.8-9.8,7.2-12.7
			c-2.4-2.9-3.9-6.7-3.9-11c0-1.6,0.2-3.2,0.6-4.7c-0.2,0-0.4,0-0.5,0h-0.1c1.8-7.1,7.4-12.2,13.9-12.2c6.3,0,11.7,4.7,13.7,11.4
			c-0.1,0-0.3,0-0.4,0.1c0.6,1.7,0.9,3.5,0.9,5.5c0,4.2-1.5,8.1-3.9,11c4.3,2.9,7.2,7.5,7.2,12.7c0,1.4-0.2,2.7-0.6,4
			c8-5.4,13.2-14.5,13.2-24.9C681,388.4,667.6,375,651,375z"/>
		<path fill="#EFC84A" d="M661.2,413.2c-2.6,3.1-6.2,5-10.2,5s-7.6-1.9-10.2-5c-4.3,2.9-7.2,7.5-7.2,12.7c0,1.4,0.2,2.7,0.6,4
			c4.8,3.2,10.6,5.1,16.8,5.1c6.2,0,12-1.9,16.8-5.1c0.4-1.3,0.6-2.6,0.6-4C668.3,420.6,665.5,416,661.2,413.2z M661.6,423.8l-1.4,1
			l0.6,1.6c0.1,0.2,0,0.4-0.2,0.5c-0.1,0.1-0.2,0.1-0.3,0.1c-0.1,0-0.2,0-0.3-0.1l-1.4-1l-1.4,1c-0.1,0.1-0.2,0.1-0.3,0.1
			c-0.1,0-0.2,0-0.3-0.1c-0.2-0.1-0.3-0.3-0.2-0.5l0.6-1.6l-1.4-1c-0.2-0.1-0.3-0.3-0.2-0.5c0.1-0.2,0.3-0.3,0.5-0.3l0,0l1.8,0
			l0.5-1.6c0.1-0.2,0.3-0.3,0.5-0.3s0.4,0.1,0.5,0.3l0.5,1.6l1.8,0l0,0c0.2,0,0.4,0.1,0.5,0.3C661.8,423.4,661.8,423.6,661.6,423.8z
			"/>
		<path fill="#3B5766" d="M661.3,422.9L661.3,422.9l-1.8,0l-0.5-1.6c-0.1-0.2-0.3-0.3-0.5-0.3s-0.4,0.1-0.5,0.3l-0.5,1.6l-1.8,0l0,0
			c-0.2,0-0.4,0.1-0.5,0.3c-0.1,0.2,0,0.4,0.2,0.5l1.4,1l-0.6,1.6c-0.1,0.2,0,0.4,0.2,0.5c0.1,0.1,0.2,0.1,0.3,0.1
			c0.1,0,0.2,0,0.3-0.1l1.4-1l1.4,1c0.1,0.1,0.2,0.1,0.3,0.1c0.1,0,0.2,0,0.3-0.1c0.2-0.1,0.3-0.3,0.2-0.5l-0.6-1.6l1.4-1
			c0.2-0.1,0.3-0.3,0.2-0.5C661.7,423,661.5,422.9,661.3,422.9z"/>
		<path fill="#E09274" d="M651,418.1c4,0,7.6-1.9,10.2-5c2.4-2.9,3.9-6.7,3.9-11c0-1.9-0.3-3.8-0.9-5.5c-1.1,0.2-2.2,0.3-3.4,0.3
			c-4.8,0-9-1.5-11.7-3.9c-2.4,2.6-6.7,4.3-11.6,4.4c-0.4,1.5-0.6,3.1-0.6,4.7c0,4.2,1.5,8.1,3.9,11
			C643.4,416.2,647,418.1,651,418.1z M653.2,411.8c-0.7,0.5-1.5,0.7-2.1,0.7c-1.3,0-2.3-0.6-2.4-0.7c-0.3-0.2-0.4-0.6-0.2-1
			s0.6-0.4,1-0.2c0.1,0,1.5,1,2.9,0c0.3-0.2,0.8-0.2,1,0.2C653.6,411.1,653.5,411.6,653.2,411.8z M655.5,400.8
			c1.4,0,2.6,1.2,2.6,2.6c0,1.4-1.2,2.6-2.6,2.6c-1.4,0-2.6-1.2-2.6-2.6C652.9,401.9,654,400.8,655.5,400.8z M646.5,400.8
			c1.4,0,2.6,1.2,2.6,2.6c0,1.4-1.2,2.6-2.6,2.6c-1.4,0-2.6-1.2-2.6-2.6C644,401.9,645.1,400.8,646.5,400.8z"/>
		<path fill="#752C00" d="M660.9,397c1.2,0,2.3-0.1,3.4-0.3c0.1,0,0.3,0,0.4-0.1c-2-6.6-7.4-11.4-13.7-11.4
			c-6.6,0-12.1,5.1-13.9,12.2h0.1c0.2,0,0.4,0,0.5,0c4.9-0.1,9.2-1.8,11.6-4.4C651.8,395.4,656.1,397,660.9,397z"/>
		<path fill="#FFFFFF" d="M655.5,405.9c1.4,0,2.6-1.2,2.6-2.6c0-1.4-1.2-2.6-2.6-2.6c-1.4,0-2.6,1.2-2.6,2.6
			C652.9,404.8,654,405.9,655.5,405.9z M655.5,402.2c0.6,0,1.2,0.5,1.2,1.2c0,0.6-0.5,1.2-1.2,1.2c-0.6,0-1.2-0.5-1.2-1.2
			C654.3,402.7,654.8,402.2,655.5,402.2z"/>
		<path fill="#FFFFFF" d="M646.5,405.9c1.4,0,2.6-1.2,2.6-2.6c0-1.4-1.2-2.6-2.6-2.6c-1.4,0-2.6,1.2-2.6,2.6
			C644,404.8,645.1,405.9,646.5,405.9z M646.5,402.2c0.6,0,1.2,0.5,1.2,1.2c0,0.6-0.5,1.2-1.2,1.2c-0.6,0-1.2-0.5-1.2-1.2
			C645.4,402.7,645.9,402.2,646.5,402.2z"/>
		<circle fill="#334D5D" cx="646.5" cy="403.4" r="1.2"/>
		<circle fill="#334D5D" cx="655.5" cy="403.4" r="1.2"/>
		<path fill="#9C6550" d="M652.4,410.7c-1.4,1-2.8,0-2.9,0c-0.3-0.2-0.8-0.1-1,0.2c-0.2,0.3-0.1,0.8,0.2,1c0.1,0,1.1,0.7,2.4,0.7
			c0.7,0,1.4-0.2,2.1-0.7c0.3-0.2,0.4-0.7,0.2-1C653.1,410.5,652.7,410.4,652.4,410.7z"/>
	</g>
	<path fill="#FFF200" d="M651,382.1c-7,0-12.6,5.6-12.6,12.6h25.2C663.6,387.7,657.9,382.1,651,382.1z"/>
	<path fill="#007ED7" d="M643.5,394.7c0-5.4,1.4-12.8,7.5-12.8h0c6,0,7.5,7.3,7.5,12.7L643.5,394.7z"/>
	<g>
		<path fill="#C0F5FB" d="M650.9,382l12.6-1.7c0,0,1.9-0.1,1.9,1.5s-1.9,1.5-1.9,1.5L650.9,382z"/>
		<path fill="#B30928" d="M651,382l-12.6-1.7c0,0-1.9-0.1-1.9,1.5s1.9,1.5,1.9,1.5L651,382z"/>
	</g>
	<ellipse fill="#FFFFFF" cx="651" cy="382" rx="0.5" ry="0.3"/>
</g>
</svg>
